<svg xmlns="http://www.w3.org/2000/svg" width="32.375" height="24.281" viewBox="0 0 32.375 24.281">
  <g id="sobre" transform="translate(0 -64)">
    <g id="Grupo_5" data-name="Grupo 5" transform="translate(0 64)">
      <g id="Grupo_4" data-name="Grupo 4">
        <path id="Trazado_27" data-name="Trazado 27" d="M7.152,65.97c4.443,3.763,12.24,10.383,14.531,12.447a1.354,1.354,0,0,0,1.958,0c2.293-2.066,10.09-8.687,14.533-12.45a.674.674,0,0,0,.095-.931A2.678,2.678,0,0,0,36.153,64H9.174a2.678,2.678,0,0,0-2.117,1.039A.674.674,0,0,0,7.152,65.97Z" transform="translate(-6.477 -64)" fill="#edebd7"/>
        <path id="Trazado_28" data-name="Trazado 28" d="M348.933,126.474a.671.671,0,0,0-.719.1c-2.91,2.467-6.744,5.726-9.636,8.213a.674.674,0,0,0,.018,1.037c2.687,2.152,6.735,5.112,9.659,7.216a.675.675,0,0,0,1.068-.547v-15.4A.674.674,0,0,0,348.933,126.474Z" transform="translate(-316.95 -122.465)" fill="#edebd7"/>
        <path id="Trazado_29" data-name="Trazado 29" d="M1.068,143.046c2.924-2.1,6.974-5.064,9.66-7.216a.674.674,0,0,0,.018-1.037c-2.892-2.487-6.726-5.746-9.636-8.213A.675.675,0,0,0,0,127.095v15.4a.674.674,0,0,0,1.068.547Z" transform="translate(0 -122.474)" fill="#edebd7"/>
        <path id="Trazado_30" data-name="Trazado 30" d="M39.626,293.073c-2.824-2.02-8.025-5.786-11.13-8.306a.676.676,0,0,0-.868.015c-.609.532-1.119.979-1.481,1.3a2.731,2.731,0,0,1-3.765,0c-.36-.325-.87-.774-1.479-1.3a.672.672,0,0,0-.867-.015c-3.094,2.511-8.3,6.282-11.13,8.306a.674.674,0,0,0-.1,1.008,2.7,2.7,0,0,0,1.972.866H37.755a2.706,2.706,0,0,0,1.973-.866.674.674,0,0,0-.1-1.008Z" transform="translate(-8.078 -270.666)" fill="#edebd7"/>
      </g>
    </g>
  </g>
</svg>
