<svg xmlns="http://www.w3.org/2000/svg" width="37.092" height="36.176" viewBox="0 0 37.092 36.176">
  <g id="Grupo_6" data-name="Grupo 6" transform="translate(-290.221 -58.431)">
    <path id="Trazado_2" data-name="Trazado 2" d="M308.767,58.431A18.548,18.548,0,0,0,302.9,94.575c.927.171,1.267-.4,1.267-.892,0-.442-.017-1.9-.025-3.453-5.16,1.122-6.248-2.188-6.248-2.188a4.912,4.912,0,0,0-2.059-2.714c-1.683-1.151.127-1.127.127-1.127a3.9,3.9,0,0,1,2.843,1.911,3.948,3.948,0,0,0,5.4,1.542,3.951,3.951,0,0,1,1.177-2.48c-4.119-.469-8.45-2.059-8.45-9.165a7.177,7.177,0,0,1,1.911-4.978,6.665,6.665,0,0,1,.18-4.908s1.557-.5,5.1,1.9a17.583,17.583,0,0,1,9.288,0c3.54-2.4,5.1-1.9,5.1-1.9a6.656,6.656,0,0,1,.182,4.908,7.163,7.163,0,0,1,1.909,4.978c0,7.123-4.339,8.692-8.468,9.151a4.434,4.434,0,0,1,1.258,3.434c0,2.481-.022,4.479-.022,5.089,0,.494.334,1.072,1.274.89a18.549,18.549,0,0,0-5.874-36.142Z" transform="translate(0 0)" fill="#edebd7" fill-rule="evenodd"/>
    <path id="Trazado_3" data-name="Trazado 3" d="M311.972,144.425c-.041.092-.186.12-.318.057s-.21-.186-.166-.279.185-.121.319-.058.212.188.165.28Zm-.228-.169" transform="translate(-14.727 -59.366)" fill="#edebd7"/>
    <path id="Trazado_4" data-name="Trazado 4" d="M314.439,146.7c-.088.082-.261.044-.379-.086a.284.284,0,0,1-.054-.385c.091-.082.259-.044.381.086s.145.3.052.385Zm-.177-.19" transform="translate(-16.442 -60.806)" fill="#edebd7"/>
    <path id="Trazado_5" data-name="Trazado 5" d="M316.794,149.909c-.114.079-.3.005-.414-.16s-.114-.363,0-.442.3-.008.415.156.113.366,0,.446Zm0,0" transform="translate(-18.066 -62.945)" fill="#edebd7"/>
    <path id="Trazado_6" data-name="Trazado 6" d="M319.746,153.32c-.1.112-.318.082-.477-.071a.356.356,0,0,1-.105-.474c.1-.112.321-.08.48.071s.21.363.1.474Zm0,0" transform="translate(-20.017 -65.323)" fill="#edebd7"/>
    <path id="Trazado_7" data-name="Trazado 7" d="M323.932,155.738c-.045.145-.253.211-.463.149s-.347-.234-.3-.38.253-.215.465-.149.347.232.3.38Zm0,0" transform="translate(-22.82 -67.142)" fill="#edebd7"/>
    <path id="Trazado_8" data-name="Trazado 8" d="M328.826,156.4c.005.153-.173.28-.393.283s-.4-.119-.4-.269.174-.28.4-.284.4.119.4.271Zm0,0" transform="translate(-26.197 -67.696)" fill="#edebd7"/>
    <path id="Trazado_9" data-name="Trazado 9" d="M333.439,155.753c.026.149-.127.3-.346.343s-.415-.053-.442-.2.129-.306.344-.346.416.052.443.2Zm0,0" transform="translate(-29.397 -67.286)" fill="#edebd7"/>
  </g>
</svg>
