<?xml version="1.0" encoding="UTF-8" standalone="no"?>
<!-- Created with Inkscape (http://www.inkscape.org/) -->

<svg
   xmlns:dc="http://purl.org/dc/elements/1.1/"
   xmlns:cc="http://creativecommons.org/ns#"
   xmlns:rdf="http://www.w3.org/1999/02/22-rdf-syntax-ns#"
   xmlns:svg="http://www.w3.org/2000/svg"
   xmlns="http://www.w3.org/2000/svg"
   xmlns:sodipodi="http://sodipodi.sourceforge.net/DTD/sodipodi-0.dtd"
   xmlns:inkscape="http://www.inkscape.org/namespaces/inkscape"
   width="28.715586mm"
   height="12.288888mm"
   viewBox="0 0 101.74814 43.543304"
   id="svg5958"
   version="1.1"
   inkscape:version="0.91 r13725"
   sodipodi:docname="icel.svg">
  <defs
     id="defs5960" />
  <sodipodi:namedview
     id="base"
     pagecolor="#ffffff"
     bordercolor="#666666"
     borderopacity="1.0"
     inkscape:pageopacity="0.0"
     inkscape:pageshadow="2"
     inkscape:zoom="1.979899"
     inkscape:cx="15.479733"
     inkscape:cy="-61.332529"
     inkscape:document-units="px"
     inkscape:current-layer="layer1"
     showgrid="false"
     fit-margin-top="0.5"
     fit-margin-left="0.5"
     fit-margin-right="0.5"
     fit-margin-bottom="0.5"
     inkscape:window-width="1440"
     inkscape:window-height="836"
     inkscape:window-x="0"
     inkscape:window-y="27"
     inkscape:window-maximized="1" />
  <metadata
     id="metadata5963">
    <rdf:RDF>
      <cc:Work
         rdf:about="">
        <dc:format>image/svg+xml</dc:format>
        <dc:type
           rdf:resource="http://purl.org/dc/dcmitype/StillImage" />
        <dc:title></dc:title>
      </cc:Work>
    </rdf:RDF>
  </metadata>
  <g
     inkscape:label="Capa 1"
     inkscape:groupmode="layer"
     id="layer1"
     transform="translate(-15.678017,-120.92458)">
    <g
       id="g6574"
       transform="matrix(0.27325698,0,0,0.27325698,12.681424,118.23835)">
      <g
         transform="matrix(3.189457,0,0,-3.1894573,135.25446,138.93159)"
         id="g3466"
         style="clip-rule:evenodd;fill-rule:evenodd;image-rendering:optimizeQuality;shape-rendering:geometricPrecision;text-rendering:geometricPrecision">
        <path
           id="path3468"
           style="fill:#ffffff;fill-opacity:1;fill-rule:nonzero;stroke:none"
           d="m 0,0 c -1.064,-1.676 -2.088,-3.315 -4.381,-4.917 -1.226,-0.853 -4.053,-2.534 -8.066,-2.534 -7.658,0 -13.841,5.567 -13.841,15.357 0,8.557 5.816,15.314 14.007,15.314 3.314,0 6.262,-1.146 8.43,-2.865 2.013,-1.596 2.953,-3.197 3.77,-4.629 L -5.812,12.86 c -0.413,0.944 -0.902,1.926 -2.173,2.99 -1.392,1.106 -2.784,1.435 -3.971,1.435 -4.672,0 -7.126,-4.344 -7.126,-9.179 0,-6.34 3.237,-9.497 7.126,-9.497 3.767,0 5.279,2.621 6.264,4.299 L 0,0 Z"
           inkscape:connector-curvature="0" />
      </g>
      <g
         transform="matrix(3.189457,0,0,-3.1894573,141.79225,67.73879)"
         id="g3470"
         style="clip-rule:evenodd;fill-rule:evenodd;image-rendering:optimizeQuality;shape-rendering:geometricPrecision;text-rendering:geometricPrecision">
        <path
           id="path3472"
           style="fill:#ffffff;fill-opacity:1;fill-rule:nonzero;stroke:none"
           d="m 0,0 21.373,0 0,-5.61 -14.168,0 0,-5.244 13.229,0 0,-5.483 -13.229,0 0,-6.884 15.439,0 0,-5.69 L 0,-28.911 0,0 Z"
           inkscape:connector-curvature="0" />
      </g>
      <g
         transform="matrix(3.189457,0,0,-3.1894573,222.896,67.61725)"
         id="g3474"
         style="clip-rule:evenodd;fill-rule:evenodd;image-rendering:optimizeQuality;shape-rendering:geometricPrecision;text-rendering:geometricPrecision">
        <path
           id="path3476"
           style="fill:#ffffff;fill-opacity:1;fill-rule:nonzero;stroke:none"
           d="m 0,0 7.207,0 0,-22.849 7.697,0 0,-6.1 L 0,-28.949 0,0 Z"
           inkscape:connector-curvature="0" />
      </g>
      <path
         id="path3478"
         style="clip-rule:evenodd;fill:#ffffff;fill-opacity:1;fill-rule:nonzero;stroke:none;image-rendering:optimizeQuality;shape-rendering:geometricPrecision;text-rendering:geometricPrecision"
         d="m 17.449667,159.94982 22.98958,0 0,-91.90421 -22.98958,0 0,91.90421 z"
         inkscape:connector-curvature="0" />
      <g
         transform="matrix(3.189457,0,0,-3.1894573,21.271937,17.36802)"
         id="g3480"
         style="clip-rule:evenodd;fill-rule:evenodd;image-rendering:optimizeQuality;shape-rendering:geometricPrecision;text-rendering:geometricPrecision">
        <path
           id="path3482"
           style="fill:#ffffff;fill-opacity:1;fill-rule:nonzero;stroke:none"
           d="m 0,0 0,-7.625 c 0,-1.397 0,-2.381 0.616,-3.183 0.422,-0.576 1.381,-1.213 2.982,-1.213 0.456,0 1.071,0.039 1.672,0.273 0.981,0.383 1.49,1 1.761,2.126 0.111,0.434 0.127,1.198 0.127,1.67 l 0,7.952 1.218,0 0,-5.827 c 0,-3.557 0,-4.777 -1.091,-5.959 -0.927,-0.998 -2.305,-1.36 -3.654,-1.36 -2.158,0 -3.923,0.927 -4.539,2.777 -0.288,0.927 -0.288,1.637 -0.288,4.435 L -1.196,0 0,0 Z"
           inkscape:connector-curvature="0" />
      </g>
      <g
         transform="matrix(3.189457,0,0,-3.1894573,89.007387,58.25462)"
         id="g3484"
         style="clip-rule:evenodd;fill-rule:evenodd;image-rendering:optimizeQuality;shape-rendering:geometricPrecision;text-rendering:geometricPrecision">
        <path
           id="path3486"
           style="fill:#ffffff;fill-opacity:1;fill-rule:nonzero;stroke:none"
           d="m 0,0 -1.2,0 -7.539,11.08 0,-11.08 -1.182,0 0,12.819 1.182,0 L -1.091,1.853 -1.2,12.819 0,12.819 0,0 Z"
           inkscape:connector-curvature="0" />
      </g>
      <path
         id="path3488"
         style="clip-rule:evenodd;fill:#ffffff;fill-opacity:1;fill-rule:nonzero;stroke:none;image-rendering:optimizeQuality;shape-rendering:geometricPrecision;text-rendering:geometricPrecision"
         d="m 102.27648,58.25398 -3.897573,0 0,-40.88565 3.897573,0 0,40.88565 z"
         inkscape:connector-curvature="0" />
      <g
         transform="matrix(3.189457,0,0,-3.1894573,126.02553,58.25462)"
         id="g3490"
         style="clip-rule:evenodd;fill-rule:evenodd;image-rendering:optimizeQuality;shape-rendering:geometricPrecision;text-rendering:geometricPrecision">
        <path
           id="path3492"
           style="fill:#ffffff;fill-opacity:1;fill-rule:nonzero;stroke:none"
           d="m 0,0 -1.091,0 -4.703,12.819 1.339,0 3.93,-11.147 4.047,11.147 1.291,0 L 0,0 Z"
           inkscape:connector-curvature="0" />
      </g>
      <g
         transform="matrix(3.189457,0,0,-3.1894573,174.81109,58.25462)"
         id="g3494"
         style="clip-rule:evenodd;fill-rule:evenodd;image-rendering:optimizeQuality;shape-rendering:geometricPrecision;text-rendering:geometricPrecision">
        <path
           id="path3496"
           style="fill:#ffffff;fill-opacity:1;fill-rule:nonzero;stroke:none"
           d="m 0,0 -8.828,0 0,12.819 8.375,0 0,-1.122 -7.159,0 0,-4.558 6.485,0 0,-1.127 -6.485,0 0,-4.887 L 0,1.125 0,0 Z"
           inkscape:connector-curvature="0" />
      </g>
      <g
         transform="matrix(3.189457,0,0,-3.1894573,185.52899,36.75704)"
         id="g3498"
         style="clip-rule:evenodd;fill-rule:evenodd;image-rendering:optimizeQuality;shape-rendering:geometricPrecision;text-rendering:geometricPrecision">
        <path
           id="path3500"
           style="fill:#ffffff;fill-opacity:1;fill-rule:nonzero;stroke:none"
           d="M 0,0 3.015,0 C 3.85,0 4.63,0.017 5.176,0.123 6.54,0.398 7.03,1.432 7.03,2.468 7.03,3.723 6.414,4.668 5.157,4.922 4.795,4.995 4.63,4.995 3.015,5.014 L 0,5.014 0,0 Z m 8.591,-6.74 -1.527,0 -4.049,5.685 -3.015,0 0,-5.685 -1.22,0 0,12.842 3.601,0 C 4.614,6.079 5.176,6.079 5.978,5.811 8.083,5.066 8.229,3.05 8.229,2.412 8.229,1.071 7.648,0.324 7.269,-0.057 6.341,-0.928 5.123,-1.001 4.432,-1.055 L 8.591,-6.74 Z"
           inkscape:connector-curvature="0" />
      </g>
      <g
         transform="matrix(3.189457,0,0,-3.1894573,243.29103,27.26648)"
         id="g3502"
         style="clip-rule:evenodd;fill-rule:evenodd;image-rendering:optimizeQuality;shape-rendering:geometricPrecision;text-rendering:geometricPrecision">
        <path
           id="path3504"
           style="fill:#ffffff;fill-opacity:1;fill-rule:nonzero;stroke:none"
           d="m 0,0 c -0.106,0.327 -0.252,0.766 -0.544,1.145 -0.637,0.893 -1.672,1.293 -2.78,1.293 -1.377,0 -3.018,-0.584 -3.018,-2.291 0,-1.562 1.438,-2.014 2.163,-2.235 0.362,-0.109 2.199,-0.58 2.602,-0.724 0.688,-0.22 2.96,-0.961 2.96,-3.401 0,-1.798 -1.508,-3.829 -4.795,-3.829 -1.367,0 -2.349,0.345 -3.019,0.779 -0.978,0.654 -1.528,1.598 -1.742,2.778 l 1.219,0.638 c 0.015,-0.51 0.07,-1.038 0.302,-1.491 0.586,-1.199 1.912,-1.652 3.24,-1.652 2.469,0 3.558,1.363 3.558,2.724 0,0.925 -0.434,1.454 -0.783,1.727 -0.581,0.489 -1.325,0.671 -3.015,1.109 -1.811,0.471 -3.869,1.141 -3.869,3.523 0,2.525 2.235,3.341 4.231,3.341 3.29,0 4.126,-2.106 4.416,-2.815 L 0,0 Z"
           inkscape:connector-curvature="0" />
      </g>
      <path
         id="path3506"
         style="clip-rule:evenodd;fill:#ffffff;fill-opacity:1;fill-rule:nonzero;stroke:none;image-rendering:optimizeQuality;shape-rendering:geometricPrecision;text-rendering:geometricPrecision"
         d="m 257.95068,58.25398 -3.8847,0 0,-40.88565 3.8847,0 0,40.88565 z"
         inkscape:connector-curvature="0" />
      <g
         transform="matrix(3.189457,0,0,-3.1894573,271.27972,54.78479)"
         id="g3508"
         style="clip-rule:evenodd;fill-rule:evenodd;image-rendering:optimizeQuality;shape-rendering:geometricPrecision;text-rendering:geometricPrecision">
        <path
           id="path3510"
           style="fill:#ffffff;fill-opacity:1;fill-rule:nonzero;stroke:none"
           d="M 0,0 1.925,0 C 2.981,0 4.449,-0.017 5.305,0.382 6.538,0.945 7.643,2.744 7.643,5.307 7.643,7.504 6.776,9.61 5.21,10.3 4.503,10.609 3.813,10.609 2.234,10.609 L 0,10.609 0,0 Z m -1.234,-1.088 0,12.819 3.413,0 C 3.542,11.72 4.723,11.72 5.647,11.353 7.48,10.627 8.866,8.359 8.866,5.359 8.866,2.963 7.992,0.945 6.575,-0.163 5.411,-1.069 4.252,-1.088 2.086,-1.088 l -3.32,0 z"
           inkscape:connector-curvature="0" />
      </g>
      <g
         transform="matrix(3.189457,0,0,-3.1894573,329.21658,42.79021)"
         id="g3512"
         style="clip-rule:evenodd;fill-rule:evenodd;image-rendering:optimizeQuality;shape-rendering:geometricPrecision;text-rendering:geometricPrecision">
        <path
           id="path3514"
           style="fill:#ffffff;fill-opacity:1;fill-rule:nonzero;stroke:none"
           d="M 0,0 -2.477,6.539 -4.979,0 0,0 Z m 3.159,-4.849 -1.324,0 -1.473,3.87 -5.739,0 -1.453,-3.87 -1.362,0 5.229,12.82 1.017,0 5.105,-12.82 z"
           inkscape:connector-curvature="0" />
      </g>
      <g
         transform="matrix(3.189457,0,0,-3.1894573,348.56789,54.78479)"
         id="g3516"
         style="clip-rule:evenodd;fill-rule:evenodd;image-rendering:optimizeQuality;shape-rendering:geometricPrecision;text-rendering:geometricPrecision">
        <path
           id="path3518"
           style="fill:#ffffff;fill-opacity:1;fill-rule:nonzero;stroke:none"
           d="m 0,0 1.926,0 c 1.051,0 2.525,-0.017 3.38,0.382 1.232,0.563 2.342,2.362 2.342,4.925 0,2.197 -0.875,4.303 -2.435,4.993 -0.708,0.309 -1.396,0.309 -2.98,0.309 L 0,10.609 0,0 Z m -1.233,-1.088 0,12.819 3.413,0 C 3.541,11.72 4.723,11.72 5.65,11.353 7.486,10.627 8.863,8.359 8.863,5.359 8.863,2.963 7.992,0.945 6.575,-0.163 5.414,-1.069 4.249,-1.088 2.087,-1.088 l -3.32,0 z"
           inkscape:connector-curvature="0" />
      </g>
      <path
         id="path3520"
         style="clip-rule:evenodd;fill:#0086c9;fill-opacity:1;fill-rule:nonzero;stroke:none;image-rendering:optimizeQuality;shape-rendering:geometricPrecision;text-rendering:geometricPrecision"
         d="m 375.59698,161.13629 -96.35666,0 0,-93.93907 96.35666,0 0,93.93907 z"
         inkscape:connector-curvature="0" />
      <g
         transform="matrix(3.189457,0,0,-3.1894573,366.00408,116.36555)"
         id="g3522"
         style="clip-rule:evenodd;fill-rule:evenodd;image-rendering:optimizeQuality;shape-rendering:geometricPrecision;text-rendering:geometricPrecision">
        <path
           id="path3524"
           style="fill:#ffffff;fill-opacity:1;fill-rule:nonzero;stroke:none"
           d="m 0,0 0,0.511 -4.37,0 0,-0.442 c 0.507,-0.024 1.023,-0.199 1.023,-1.494 l 0,-9.664 3.347,0 0,0.512 c -0.384,0.152 -0.62,0.532 -0.62,1.4 l 0,7.752 C -0.62,-0.473 -0.35,-0.13 0,0"
           inkscape:connector-curvature="0" />
      </g>
      <g
         transform="matrix(3.189457,0,0,-3.1894573,332.83245,114.79251)"
         id="g3526"
         style="clip-rule:evenodd;fill-rule:evenodd;image-rendering:optimizeQuality;shape-rendering:geometricPrecision;text-rendering:geometricPrecision">
        <path
           id="path3528"
           style="fill:#ffffff;fill-opacity:1;fill-rule:nonzero;stroke:none"
           d="m 0,0 0,-0.463 c 0.78,-0.178 0.845,-0.866 0.845,-1.452 l 0,-7.151 c 0,-0.791 -0.628,-1.609 -2.405,-1.609 -1.856,0 -2.647,2.43 -2.647,4.833 l 0,5.565 C -4.207,-0.086 -4.45,0 -4.97,0 l -3.472,0 c -0.131,0 -0.186,-0.086 -0.186,-0.22 0,-0.166 0.136,-0.248 0.381,-0.248 l 0.602,0 c 0.544,0 0.817,-0.352 0.817,-1.039 l 0,-3.628 c 0,-3.818 1.888,-6.22 5.569,-6.22 0.491,0 0.903,0.083 1.8,0.436 l 1.257,0.57 1.093,-1.006 c 0.134,-0.142 0.219,-0.218 0.3,-0.218 0.192,0 0.271,0.107 0.271,0.434 l 0,9.771 c 0,0.492 0.221,0.765 0.629,0.848 L 4.396,-0.465 4.396,0 0,0 Z"
           inkscape:connector-curvature="0" />
      </g>
    </g>
  </g>
</svg>
