<svg id="instagram" xmlns="http://www.w3.org/2000/svg" width="33.185" height="33.185" viewBox="0 0 33.185 33.185">
  <path id="Trazado_22" data-name="Trazado 22" d="M24.2,0H8.983A8.993,8.993,0,0,0,0,8.983V24.2a8.993,8.993,0,0,0,8.983,8.983H24.2A8.993,8.993,0,0,0,33.185,24.2V8.983A8.993,8.993,0,0,0,24.2,0Zm-7.61,25.666a9.074,9.074,0,1,1,9.074-9.074A9.084,9.084,0,0,1,16.592,25.666ZM25.883,9.659a2.681,2.681,0,1,1,2.681-2.681A2.684,2.684,0,0,1,25.883,9.659Zm0,0" fill="#edebd7"/>
  <path id="Trazado_23" data-name="Trazado 23" d="M153.148,146.02a7.128,7.128,0,1,0,7.128,7.128A7.136,7.136,0,0,0,153.148,146.02Zm0,0" transform="translate(-136.555 -136.555)" fill="#edebd7"/>
  <path id="Trazado_24" data-name="Trazado 24" d="M388.728,96.3a.736.736,0,1,0,.736.736A.737.737,0,0,0,388.728,96.3Zm0,0" transform="translate(-362.845 -90.059)" fill="#edebd7"/>
</svg>
