<svg xmlns="http://www.w3.org/2000/svg" width="32.785" height="31.333" viewBox="0 0 32.785 31.333">
  <g id="linkedin-logo-img" transform="translate(0 -9.708)">
    <g id="Grupo_3" data-name="Grupo 3" transform="translate(0 9.708)">
      <rect id="Rectángulo_23" data-name="Rectángulo 23" width="7.044" height="21.152" transform="translate(0.405 10.181)" fill="#edebd7"/>
      <path id="Trazado_25" data-name="Trazado 25" d="M170.828,141.754a7.581,7.581,0,0,0-5.869-2.423,8.459,8.459,0,0,0-2.444.331,5.546,5.546,0,0,0-1.857.928,7.952,7.952,0,0,0-2.038,2.239v-3.008H151.6l.022,1.025q.022,1.025.022,6.318t-.043,13.81h7.022v-11.8a5.155,5.155,0,0,1,.235-1.729,4.534,4.534,0,0,1,1.355-1.825,3.456,3.456,0,0,1,2.252-.737,3.037,3.037,0,0,1,2.7,1.27,6.175,6.175,0,0,1,.864,3.511v11.312h7.022V148.85Q173.048,144.175,170.828,141.754Z" transform="translate(-140.264 -129.64)" fill="#edebd7"/>
      <path id="Trazado_26" data-name="Trazado 26" d="M3.97,9.708A4.018,4.018,0,0,0,1.1,10.743,3.437,3.437,0,0,0,0,13.358a3.5,3.5,0,0,0,1.067,2.6,3.852,3.852,0,0,0,2.817,1.046h.043a4.021,4.021,0,0,0,2.892-1.046,3.379,3.379,0,0,0,1.078-2.6,3.56,3.56,0,0,0-1.089-2.615A3.9,3.9,0,0,0,3.97,9.708Z" transform="translate(0 -9.708)" fill="#edebd7"/>
    </g>
  </g>
</svg>
