<svg xmlns="http://www.w3.org/2000/svg" width="23.972" height="23.972" viewBox="0 0 23.972 23.972">
  <g id="project" transform="translate(-0.001 -0.001)">
    <path id="Trazado_1" data-name="Trazado 1" d="M73.224,283.941a.7.7,0,0,0,.131.812l.172.172c.5-.588,1.075-1.226,1.776-1.927.05-.05.1-.074.15-.119l-1.1-1.105C73.705,282.935,73.331,283.729,73.224,283.941Zm0,0" transform="translate(-69.723 -268.579)" fill="#373f47"/>
    <path id="Trazado_2" data-name="Trazado 2" d="M164.815,389.713c-.7.7-1.34,1.282-1.924,1.779l.233.233a.7.7,0,0,0,.818.128c.364-.187.936-.457,2.15-1.133l-1.157-1.157C164.889,389.612,164.865,389.663,164.815,389.713Zm0,0" transform="translate(-155.263 -371.322)" fill="#373f47"/>
    <path id="Trazado_3" data-name="Trazado 3" d="M65.975,311.518c-.508-.508-1.935-.052-2.605.618a18.678,18.678,0,0,0-3.711,4.772.7.7,0,0,0,.939.938,18.814,18.814,0,0,0,4.759-3.724c.737-.738,1.1-2.122.619-2.6Zm0,0" transform="translate(-56.797 -296.725)" fill="#373f47"/>
    <path id="Trazado_4" data-name="Trazado 4" d="M2.193,165.466.207,167.452a.7.7,0,0,0,.678,1.175,5.772,5.772,0,0,1,2.654-.246,37.687,37.687,0,0,1,2.907-4.435C5.851,163.564,3.882,163.776,2.193,165.466Zm0,0" transform="translate(0 -156.114)" fill="#373f47"/>
    <path id="Trazado_5" data-name="Trazado 5" d="M246.026,382.761a.7.7,0,0,0,.812-.13l1.987-1.986c1.538-1.538,1.809-3.523,1.46-4.152a40.084,40.084,0,0,1-4.439,2.885,8.606,8.606,0,0,1-.2,2.654A.7.7,0,0,0,246.026,382.761Zm0,0" transform="translate(-234.138 -358.863)" fill="#373f47"/>
    <path id="Trazado_6" data-name="Trazado 6" d="M285.26,137.925a2.107,2.107,0,1,0,2.98,0A2.109,2.109,0,0,0,285.26,137.925Zm0,0" transform="translate(-271.316 -130.878)" fill="#373f47"/>
    <path id="Trazado_7" data-name="Trazado 7" d="M393.549.686A.7.7,0,0,0,392.9.039a13.884,13.884,0,0,0-5.127.6,5.9,5.9,0,0,0,1.747,3.431,5.878,5.878,0,0,0,3.5,1.744A14.524,14.524,0,0,0,393.549.686Zm0,0" transform="translate(-369.617 0)" fill="#373f47"/>
    <path id="Trazado_8" data-name="Trazado 8" d="M127.9,27.931A7.378,7.378,0,0,1,125.785,24c-4.217,1.73-8.255,5.507-11.445,10.813l1.585,1.585a2.958,2.958,0,0,1,3.231.278,2.955,2.955,0,0,1,.277,3.231l1.637,1.637c4.083-2.46,8.836-6.337,10.857-11.494A7.343,7.343,0,0,1,127.9,27.931ZM126.9,33.89a3.512,3.512,0,1,1,0-4.966A3.516,3.516,0,0,1,126.9,33.89Zm0,0" transform="translate(-108.986 -22.871)" fill="#373f47"/>
  </g>
</svg>
