<svg xmlns="http://www.w3.org/2000/svg" width="34.815" height="28.276" viewBox="0 0 34.815 28.276">
  <path id="twitter-logo-img" d="M31.236,55.129c.022.309.022.619.022.928,0,9.433-7.179,20.3-20.3,20.3A20.164,20.164,0,0,1,0,73.155a14.762,14.762,0,0,0,1.723.088,14.29,14.29,0,0,0,8.858-3.048A7.148,7.148,0,0,1,3.91,65.246a9,9,0,0,0,1.348.11,7.546,7.546,0,0,0,1.878-.243,7.136,7.136,0,0,1-5.722-7v-.088a7.186,7.186,0,0,0,3.225.906A7.146,7.146,0,0,1,2.43,49.385a20.282,20.282,0,0,0,14.712,7.467,8.055,8.055,0,0,1-.177-1.635,7.142,7.142,0,0,1,12.349-4.882,14.048,14.048,0,0,0,4.529-1.723,7.116,7.116,0,0,1-3.137,3.932,14.3,14.3,0,0,0,4.109-1.1,15.338,15.338,0,0,1-3.579,3.689Z" transform="translate(0 -48.082)" fill="#edebd7"/>
</svg>
