<?xml version="1.0" encoding="utf-8"?>
<!-- Generator: Adobe Illustrator 23.0.0, SVG Export Plug-In . SVG Version: 6.00 Build 0)  -->
<svg version="1.1" id="Capa_1" xmlns="http://www.w3.org/2000/svg" xmlns:xlink="http://www.w3.org/1999/xlink" x="0px" y="0px"
	 viewBox="0 0 32 32" style="enable-background:new 0 0 32 32;" xml:space="preserve">
<style type="text/css">
	.st0{fill:#FFFFFF;}
	.st1{fill:none;}
	.st2{fill:#0197F6;}
	.st3{font-family:'SignPainter-HouseScript';}
	.st4{font-size:24px;}
	.st5{fill:#CA2E55;}
</style>
<g id="XMLID_1_">
	<g>
		<g>
			<g>
				<g>
					<circle cx="16" cy="16.3" r="15"/>
				</g>
				<g>
					<circle class="st0" cx="16" cy="16.3" r="14"/>
				</g>
				<g>
					<circle cx="16" cy="16.3" r="13"/>
				</g>
				<g>
					<circle class="st0" cx="16" cy="16.3" r="12"/>
				</g>
				<g>
					<circle cx="16" cy="16.3" r="11"/>
				</g>
				<g>
					<circle class="st0" cx="16" cy="16.3" r="10"/>
				</g>
				<g>
					<circle cx="16" cy="16.3" r="9"/>
				</g>
				<g>
					<circle class="st0" cx="16" cy="16.3" r="8"/>
				</g>
				<g>
					<circle cx="16" cy="16.3" r="7"/>
				</g>
				<g>
					<circle class="st0" cx="16" cy="16.3" r="6"/>
				</g>
				<g>
					<circle cx="16" cy="16.3" r="5"/>
				</g>
				<g>
					<circle class="st0" cx="16" cy="16.3" r="4"/>
				</g>
				<g>
					<circle cx="16" cy="16.3" r="3"/>
				</g>
				<g>
					<circle class="st0" cx="16" cy="16.3" r="2"/>
				</g>
				<g>
					<circle cx="16" cy="16.3" r="1"/>
				</g>
			</g>
			<rect x="6.9" y="6.1" class="st1" width="13" height="16.8"/>
			<text transform="matrix(1 0 0 1 6.8535 21.1279)" class="st2 st3 st4">E</text>
			<g>
				<rect x="5.9" y="6.1" class="st1" width="13" height="16.8"/>
				<text transform="matrix(1 0 0 1 5.8535 21.1279)" class="st5 st3 st4">E</text>
			</g>
			<rect x="13.8" y="10.5" class="st1" width="13" height="16.8"/>
			<text transform="matrix(1 0 0 1 13.792 25.5352)" class="st2 st3 st4">Z</text>
			<rect x="12.8" y="10.5" class="st1" width="13" height="16.8"/>
			<text transform="matrix(1 0 0 1 12.792 25.5352)" class="st5 st3 st4">Z</text>
		</g>
	</g>
</g>
</svg>
